<svg xmlns="http://www.w3.org/2000/svg" viewBox="0 0 64 64">
  <defs>
    <radialGradient id="orb" cx="32%" cy="24%" r="78%">
      <stop offset="0%" stop-color="#ffffff"/>
      <stop offset="18%" stop-color="#c6a8f4"/>
      <stop offset="48%" stop-color="#ef2cc1"/>
      <stop offset="84%" stop-color="#fc4c02"/>
      <stop offset="100%" stop-color="#a53a5e"/>
    </radialGradient>
    <radialGradient id="shine" cx="30%" cy="25%" r="38%">
      <stop offset="0%" stop-color="#ffffff" stop-opacity="0.92"/>
      <stop offset="45%" stop-color="#ffffff" stop-opacity="0.34"/>
      <stop offset="100%" stop-color="#ffffff" stop-opacity="0"/>
    </radialGradient>
    <linearGradient id="sweep" x1="12" y1="10" x2="52" y2="54">
      <stop offset="0%" stop-color="#c6a8f4" stop-opacity="0.95"/>
      <stop offset="52%" stop-color="#ef2cc1" stop-opacity="0.86"/>
      <stop offset="100%" stop-color="#fc4c02" stop-opacity="0.96"/>
    </linearGradient>
  </defs>
  <circle cx="32" cy="32" r="28" fill="url(#sweep)"/>
  <circle cx="32" cy="32" r="27" fill="url(#orb)"/>
  <circle cx="24" cy="22" r="14" fill="url(#shine)"/>
  <path
    d="M16 34c8-14 24-20 38-12-10-1-18 3-24 12-4 6-9 8-14 0Z"
    fill="#ffffff"
    opacity="0.22"
  />
  <path
    d="M34 31c7 1 13 5 18 12-8-4-15-4-22 1-5 4-10 3-14-2 6 1 12-2 18-11Z"
    fill="#ffffff"
    opacity="0.16"
  />
</svg>
